PathFileType	4	(X/Y/Z)	Patient4_TMGait_0pt7_01_right_26.trc.trc
DataRate	CameraRate	NumFrames	NumMarkers	Units	OrigDataRate	OrigDataStartFrame	OrigNumFrames
85.365853658537	85.365853658537	4	33	mm	85.365853658537	18	       141
Frame#	Time	Sacral			L.Shoulder			Chest			R.Shoulder			Neck			R.ASIS			L.ASIS			R.Thigh.Superior			R.Thigh.Lateral			R.Thigh.Inferior			R.Patella			L.Thigh.Superior			L.Thigh.Lateral			L.Thigh.Inferior			L.Patella			L.Shank.Superior			L.Shank.Lateral			L.Shank.Inferior			R.Shank.Superior			R.Shank.Lateral			R.Shank.Inferior			R.Heel			R.Midfoot.Superior			R.Midfoot.Lateral			R.Toe			L.Heel			L.Midfoot.Lateral			L.Midfoot.Superior			L.Toe			L.Elbow			L.Wrist			R.Elbow			R.Wrist			
		X1	Y1	Z1	X2	Y2	Z2	X3	Y3	Z3	X4	Y4	Z4	X5	Y5	Z5	X6	Y6	Z6	X7	Y7	Z7	X8	Y8	Z8	X9	Y9	Z9	X10	Y10	Z10	X11	Y11	Z11	X12	Y12	Z12	X13	Y13	Z13	X14	Y14	Z14	X15	Y15	Z15	X16	Y16	Z16	X17	Y17	Z17	X18	Y18	Z18	X19	Y19	Z19	X20	Y20	Z20	X21	Y21	Z21	X22	Y22	Z22	X23	Y23	Z23	X24	Y24	Z24	X25	Y25	Z25	X26	Y26	Z26	X27	Y27	Z27	X28	Y28	Z28	X29	Y29	Z29	X30	Y30	Z30	X31	Y31	Z31	X32	Y32	Z32	X33	Y33	Z33	

18	29.569142857143	826.853004929050	1008.398234852967	431.880838734862	1060.183636163903	1420.726610433041	257.558542398515	1141.878600099492	1343.043580197022	426.384054122228	1051.971358483825	1431.990642536630	591.300238987259	1059.932465497620	1482.701576388160	410.053652144126	1044.100856064149	932.339150522036	562.197062210207	1046.748845075338	959.234918506265	287.465192892758	1117.805627524211	767.791172020416	543.979934364447	1073.854078619728	650.531511242407	626.552512316600	1167.969603417732	609.718814698374	553.909238070458	1202.769477892332	531.290815804981	578.115034848301	1048.108607715506	736.447213160272	310.707701140160	931.269087500656	642.224729501382	248.455249926204	992.577843529456	548.717176359364	310.315022423616	978.945908705370	483.698730452949	319.171466689750	949.412732895435	418.317934508087	312.520437650381	852.898628805246	307.649233826629	264.340271214857	902.393216273323	195.401664882642	337.680028796455	1191.132164032872	445.961672144600	592.512945307343	1141.989117419634	333.204075362880	660.015755062039	1219.781479806417	249.163799459190	617.514137619618	1141.158743825716	58.373768357591	593.866561911878	1300.619734203431	136.769665571838	640.915016016211	1221.420430437697	60.113512407704	670.664502569520	1423.566071536582	103.013760700760	674.304335227093	770.874020082022	40.415908771328	385.333703692573	845.504109260076	35.422124738067	305.834589541629	928.556614340401	96.083467091284	331.775771660996	1057.019751398296	43.152295662576	306.423577225570	1047.589787150579	1090.971487320798	104.720973023128	1291.392013742201	1047.166485020412	160.458176116051	869.616521459390	1154.123846628230	726.304573486328	807.799064812722	901.359018143270	761.399502861787	
19	29.580857142857	827.901348730719	1006.219447457477	434.092924998746	1059.216584217174	1419.274260703474	259.380872597543	1141.449466750309	1341.898482261766	427.959986275770	1051.488964772039	1430.770977348466	593.032852283820	1059.168802242622	1481.235573519375	411.713593320653	1045.364079994884	930.068875687773	563.895021887463	1047.701916017810	958.053420646032	289.544213990998	1116.313358287810	762.651033371969	545.761872795041	1069.778566706617	645.653759764420	627.427991054479	1163.512706671206	604.033119096430	554.511897787202	1197.293453115294	527.163154212222	577.598188724390	1046.751651980409	734.885418719483	312.038442997792	928.711011822354	641.919705883144	249.355445125854	988.661349811044	547.660198858352	311.284671187695	974.387910939228	482.609789468800	319.861831557898	944.128500530367	417.639892553568	313.098858619795	846.636479028789	307.891305094886	264.712051255546	895.101247772078	195.093777236031	337.835469915833	1188.005532774645	442.398452650059	592.113868320300	1141.627416843746	327.922757761753	658.683780118427	1222.447583836752	246.345427790424	616.225148695208	1149.747429558995	53.174191988030	591.832161606815	1307.281707046176	135.438963987318	638.650740981135	1230.113438383874	56.846345397114	668.430785745151	1431.340096318784	105.040124691074	671.735934184545	762.632223841122	40.519422462362	385.301635680432	837.258033183784	35.457415828093	305.859982827591	920.346328650787	96.060511295174	331.814697491273	1048.769998634325	42.957705744783	306.439374495550	1048.827634719939	1089.772484797119	106.278629545481	1293.491302833518	1055.015090655242	162.961797771988	865.500650982832	1156.166357477379	727.652015057548	800.825492076845	903.948891570946	761.860038810677	
20	29.592571428571	829.026973325339	1003.927888581362	436.609108165589	1058.159872209560	1417.772267044983	261.366981067544	1141.036285306561	1340.760874759866	429.674380256133	1051.007744602242	1429.528570939933	594.939875086789	1058.377118763551	1479.746226108526	413.538019733442	1046.774359408698	927.793290136849	565.795589321048	1048.647304430476	956.718409391271	291.837989420788	1115.463136888561	757.953382349434	547.669925425109	1066.421737329966	640.986252639896	628.056083274499	1159.928886728422	598.929891259808	554.986523408960	1192.596952299100	523.117889204687	576.882538224840	1045.807278718991	733.332341673550	313.546181070984	926.692561139866	641.527377713788	250.476320387148	985.394682062388	546.557292371185	312.454699652174	970.470818485812	481.393210658407	320.810363114793	939.444377258724	416.811002352615	313.863906103955	840.828568221749	308.149520080387	265.194613512518	888.006640776023	194.702702611225	338.058546958607	1184.912140491742	438.600142369920	591.328324328104	1140.122815233305	322.897320123004	656.674211465708	1223.015789228393	243.145273700742	614.264587244095	1154.154160676868	48.990468328802	589.006614571343	1310.488954739773	133.132812307598	635.492431997072	1234.572900024901	53.722870807319	665.426197672883	1435.183957640009	104.675452487377	668.295794343993	754.398092002047	40.667507345729	385.239210385631	829.034451768437	35.505029134615	305.865048851225	912.164000999925	96.041392212582	331.853140276927	1040.555241162088	42.710968092601	306.447341803813	1049.600685642398	1088.421467017794	108.123184682092	1294.847906802020	1062.047763608321	165.384629672616	862.021214155544	1157.693812145149	729.088685746582	795.231397215466	905.756130444163	762.385994306699	
21	29.604285714286	830.206168595099	1001.607213667854	439.402243450427	1057.053570231837	1416.261964817117	263.524996911145	1140.660861986886	1339.656764573961	431.546859614293	1050.553445643045	1428.292342212195	597.033433723444	1057.595583554240	1478.279284135993	415.541565003386	1048.299160150505	925.576576768347	567.899090065218	1049.556094904837	955.237671879622	294.312347922310	1115.315132866227	753.825256807927	549.703809389269	1063.856236383126	636.650098308569	628.435303433098	1157.306048453180	594.540168527976	555.358542754478	1188.795041974654	519.273529558604	575.996390579745	1045.288617757743	731.823429821923	315.212077353338	925.207273965720	641.068760307666	251.831257202810	982.797670190680	545.424659068022	313.812601300086	967.225292462539	480.056583192545	322.006419041485	935.375959516913	415.839209131293	314.814644861889	835.480754370213	308.445555260311	265.802338409834	881.117424824894	194.244828532235	338.350620819570	1182.021043962100	434.670968121584	590.215255649970	1137.738533164330	318.181471952863	654.181365827480	1221.760283867354	239.566454708973	611.780177582845	1154.605433730199	45.742433940007	585.655088648349	1310.562280892357	129.805709792076	631.642791891478	1235.077498437770	50.690256916830	661.915178971592	1435.478619848174	101.822639620586	664.186155498545	746.172094733755	40.890934186559	385.139721557721	820.837819327156	35.571503148715	305.846954883375	904.025933386993	96.030688534679	331.882008979944	1032.384728532679	42.411010934902	306.445288179727	1049.866070758544	1086.946889390589	110.271556747362	1295.496706021202	1068.171982463312	167.709308105711	859.257566602016	1158.633964961515	730.638482798749	791.075755005942	906.728680254500	762.977046724250	
